<svg width="329" height="331" viewBox="0 0 329 331" fill="none" xmlns="http://www.w3.org/2000/svg">
<path fill-rule="evenodd" clip-rule="evenodd" d="M173.717 133.106C186.213 141.517 177.309 160.152 197.958 174.448C217.074 187.684 177.624 224.036 157.752 234.232C71.6794 270.966 142.799 123.012 173.717 133.106Z" fill="url(#paint0_linear_3_1170)" stroke="#CD7C4B" stroke-width="1.02411"/>
<g filter="url(#filter0_f_3_1170)">
<path fill-rule="evenodd" clip-rule="evenodd" d="M246.138 311.127C263.918 306.152 281.898 299.171 296.309 287.572C302.36 282.702 312.25 276.665 310.524 269.064C306.498 251.337 280.076 245.596 262.026 244.668C165.747 239.716 159.374 335.409 246.138 311.127Z" fill="url(#paint1_linear_3_1170)"/>
</g>
<path fill-rule="evenodd" clip-rule="evenodd" d="M114.57 187.822L122.005 190.368L128.016 216.468L139.247 217.901L164.557 201.986L175.314 215.195L148.422 283.629L107.768 278.059L114.57 187.822Z" fill="url(#paint2_linear_3_1170)"/>
<path fill-rule="evenodd" clip-rule="evenodd" d="M64.9234 271.113C64.6772 276.874 97.6999 299.302 125.528 308.887C157.978 320.064 200.763 323.389 237.278 312.159C244.823 309.838 271.617 297.602 272.458 294.61C276.813 279.111 272.637 221.88 256.494 207.761C247.85 200.201 238.472 192.079 221.819 183.353C215.9 180.252 219.513 179.144 196.096 166.741C181.71 184.603 162.848 213.221 156.16 223.055C141.135 245.148 139.16 256.142 126.877 277.698C106.181 242.116 113.454 182.628 122.027 175.81C106.027 181.917 78.2026 203.412 74.7053 209.31C65.8224 224.293 65.6631 253.801 64.9234 271.113Z" fill="#FBFBFA" stroke="#CBC7C6" stroke-width="1.02411" stroke-linejoin="round"/>
<path fill-rule="evenodd" clip-rule="evenodd" d="M129.189 306.814C120.213 321.154 144.294 276.567 155.14 263.601C169.566 246.354 184.238 234.28 207.041 219.262C204.515 216.381 196.139 211.136 192.8 207.797C197.813 205.694 207.616 203.847 218.002 204.407C217.948 194.792 216.65 187.555 217.127 179.311C217.853 179.55 218.661 180.293 219.345 181.224C220.109 188.914 220.86 196.151 220.201 205.839C212.894 205.865 198.443 206.012 193.588 208.06C197.917 211.131 204.438 214.468 208.934 219.193C182.848 237.987 173.7 248.743 158.048 265.401C146.448 277.747 140.662 288.485 129.189 306.814Z" fill="#999390"/>
<path d="M132.321 267.202C133.647 248.773 134.303 233.668 136.683 218.136" stroke="#779FC7" stroke-width="0.682741"/>
<path fill-rule="evenodd" clip-rule="evenodd" d="M136.949 217.847L146.103 238.553C155.459 221.736 172.669 194.668 198.947 166.023L187.802 156.672C186.527 163.317 186.955 181.055 136.949 217.847Z" fill="url(#paint3_linear_3_1170)" stroke="#779FC7" stroke-width="0.682741" stroke-linecap="round" stroke-linejoin="round"/>
<path d="M115.655 304.451C125.625 281.577 135.776 258.717 148.584 236.054C161.816 212.642 177.883 189.441 199.517 166.655" stroke="#7FA2BA" stroke-width="1.02411"/>
<path d="M125.162 271.928C125.146 252.486 126.809 232.767 129.525 217.236" stroke="#779FC7" stroke-width="0.682741"/>
<path d="M127.7 277.741C106.867 238.632 114.245 207.961 118.208 183.525" stroke="#7FA2BA" stroke-width="1.02411" stroke-linecap="round" stroke-linejoin="round"/>
<path fill-rule="evenodd" clip-rule="evenodd" d="M115.361 232.702C120.503 226.789 125.564 220.951 131.338 216.946C124.604 205.402 124.239 196.35 125.011 187.742L117.892 185.594C113.032 223.434 115.595 221.817 115.361 232.702Z" fill="url(#paint4_linear_3_1170)" stroke="#779FC7" stroke-width="0.682741" stroke-linecap="round" stroke-linejoin="round"/>
<path opacity="0.8" d="M132.129 226.256C133.221 226.256 134.106 225.365 134.106 224.267C134.106 223.168 133.221 222.277 132.129 222.277C131.037 222.277 130.152 223.168 130.152 224.267C130.152 225.365 131.037 226.256 132.129 226.256Z" fill="#779FC7"/>
<path opacity="0.8" d="M130.231 245.036C131.323 245.036 132.208 244.145 132.208 243.046C132.208 241.948 131.323 241.057 130.231 241.057C129.139 241.057 128.253 241.948 128.253 243.046C128.253 244.145 129.139 245.036 130.231 245.036Z" fill="#779FC7"/>
<path opacity="0.8" d="M128.965 265.327C130.057 265.327 130.942 264.437 130.942 263.338C130.942 262.239 130.057 261.349 128.965 261.349C127.873 261.349 126.988 262.239 126.988 263.338C126.988 264.437 127.873 265.327 128.965 265.327Z" fill="#779FC7"/>
<path fill-rule="evenodd" clip-rule="evenodd" d="M115.319 189.102C118.111 175.966 110.997 215.898 112.187 229.277C113.614 245.309 119.265 260.729 124.379 275.979C128.84 289.282 109.733 246.149 108.384 229.952C107.238 216.187 111.089 209.004 115.319 189.102Z" fill="url(#paint5_linear_3_1170)"/>
<path fill-rule="evenodd" clip-rule="evenodd" d="M147.789 285.858C153.613 289.705 162.783 292.229 168.196 292.383C175.053 292.578 184.525 292.167 189.393 287.449C192.855 284.093 144.345 283.582 147.789 285.858Z" fill="url(#paint6_linear_3_1170)"/>
<path d="M147.157 286.733C151.373 289.241 157.57 292.061 163.371 292.94C168.64 293.738 176.547 293.201 181.8 292.303C185.642 291.647 190.691 288.798 190.658 287.688" stroke="#B6C2CD" stroke-width="0.682741" stroke-linecap="round" stroke-linejoin="round"/>
<path fill-rule="evenodd" clip-rule="evenodd" d="M200.395 221.863C186.135 232.23 175.809 240.292 165.15 251.057C156.996 259.292 134.523 291.868 143.174 278.024C149.429 268.016 155.025 257.315 163.246 248.867C173.852 237.968 213.987 211.98 200.395 221.863Z" fill="url(#paint7_linear_3_1170)"/>
<path fill-rule="evenodd" clip-rule="evenodd" d="M197.263 205.288C201.54 204.433 210.506 201.638 214.308 201.508C215.837 201.456 216.05 192.648 215.81 187.662C215.563 182.52 217.204 203.142 216.285 203.1C210.967 202.854 191.435 206.453 197.263 205.288Z" fill="url(#paint8_linear_3_1170)"/>
<path d="M175.867 283.681C159.298 282.569 160.733 255.874 177.201 256.453C196.549 257.133 192.645 284.807 175.867 283.681Z" fill="url(#paint9_linear_3_1170)" stroke="#901300" stroke-width="1.18639" stroke-linecap="round" stroke-linejoin="round"/>
<path fill-rule="evenodd" clip-rule="evenodd" d="M81.6266 207.909C82.5251 223.148 81.7542 239.678 80.5919 266.949L88.2784 268.139C86.9061 239.996 84.333 222.99 81.6266 207.909Z" fill="url(#paint10_linear_3_1170)"/>
<path fill-rule="evenodd" clip-rule="evenodd" d="M247.773 201.068C231.19 210.11 217.066 228.351 208.787 247.888C198.631 271.854 195.561 297.476 195.002 313.646L202.689 314.836C204.097 296.757 206.893 273.404 215.684 250.345C222.312 232.957 233.533 210.976 247.773 201.068Z" fill="url(#paint11_linear_3_1170)"/>
<path fill-rule="evenodd" clip-rule="evenodd" d="M215.992 272.452C216.605 261.744 221.243 246.803 225.748 236.314C230.588 225.043 234.004 219.129 243.042 206.274C247.589 199.806 240.898 206.568 233.66 216.552C229.487 222.306 225.133 229.627 222.644 234.827C216.772 247.093 212.033 261.712 210.966 272.154C210.795 273.834 215.896 274.137 215.992 272.452Z" fill="url(#paint12_radial_3_1170)"/>
<path fill-rule="evenodd" clip-rule="evenodd" d="M219.172 194.613C234.974 205.237 238.232 213.592 243.212 225.739C252.178 247.612 252.175 266.286 251.782 296.195C256.038 298.493 262.534 293.997 264.743 289.675C268.441 262.598 261.05 233.521 255.127 221.323C248.356 207.378 206.346 185.99 219.172 194.613Z" fill="url(#paint13_linear_3_1170)"/>
<path fill-rule="evenodd" clip-rule="evenodd" d="M175.977 260.683L174.669 267.309L169.018 266.264L168.216 271.392L173.495 272.31L172.101 278.832L177.198 279.639L178.213 273.086L183.373 274.283L184.42 268.501L178.666 267.544L179.855 261.197L175.977 260.683Z" stroke="black" stroke-opacity="0.579946" stroke-width="1.18639" stroke-linejoin="round"/>
<path fill-rule="evenodd" clip-rule="evenodd" d="M175.484 260.098L174.176 266.724L168.525 265.679L167.723 270.807L173.002 271.725L171.608 278.247L176.705 279.054L177.719 272.501L182.88 273.698L183.927 267.916L178.173 266.959L179.362 260.612L175.484 260.098Z" fill="#F6F6F6" stroke="#D5D5D5" stroke-width="1.18639" stroke-linejoin="round"/>
<path fill-rule="evenodd" clip-rule="evenodd" d="M119.632 296.998C116.745 292.717 107.29 278.9 102.951 268.904C96.6852 254.468 93.2664 240.116 89.2712 224.886C88.2889 221.141 87.4067 216.177 87.7052 212.321C89.4634 211.006 90.8777 211.062 94.322 208.352C91.4122 206.403 89.2107 205.439 86.8871 204.214C90.6564 199.999 92.681 197.075 97.7541 190.51C96.9601 190.816 96.7147 191.011 95.8174 191.476C93.4511 195.066 87.7996 201.612 85.3324 204.487C88.1362 205.566 90.8266 206.542 93.3745 208.333C89.979 210.347 87.9011 211.629 86.6442 212.144C85.909 215.986 87.302 220.972 88.2261 225.244C91.5246 240.492 93.1098 255.338 99.7003 269.465C103.286 277.151 111.506 288.897 118.561 299.372C118.876 298.781 119.283 297.789 119.632 296.998Z" fill="#999390"/>
<path d="M92.5897 284.466C64.115 271.375 69.798 251.918 72.1198 234.614" stroke="#5D5D5D" stroke-width="2.73096"/>
<path d="M89.9277 282.169C69.0753 271.142 67.7359 256.254 70.9122 238.618" stroke="white" stroke-opacity="0.416667" stroke-width="0.682741" stroke-linecap="round" stroke-linejoin="round"/>
<path d="M66.6392 277.264C90.683 277.78 98.8615 265.378 104.446 243.842" stroke="#5D5D5D" stroke-width="2.73096"/>
<path d="M181.009 305.592C189.047 305.592 195.562 299.037 195.562 290.95C195.562 282.864 189.047 276.309 181.009 276.309C172.971 276.309 166.456 282.864 166.456 290.95C166.456 299.037 172.971 305.592 181.009 305.592Z" fill="#090C0E"/>
<path d="M179.269 305.911C187.132 305.911 193.506 299.498 193.506 291.587C193.506 283.677 187.132 277.264 179.269 277.264C171.406 277.264 165.032 283.677 165.032 291.587C165.032 299.498 171.406 305.911 179.269 305.911Z" fill="url(#paint14_radial_3_1170)"/>
<path d="M179.441 299.663C184.228 299.663 188.11 295.758 188.11 290.942C188.11 286.125 184.228 282.22 179.441 282.22C174.653 282.22 170.772 286.125 170.772 290.942C170.772 295.758 174.653 299.663 179.441 299.663Z" fill="#F6F6F6" stroke="url(#paint15_linear_3_1170)" stroke-width="1.02411" stroke-linecap="round" stroke-linejoin="round"/>
<path d="M179.748 299.049C183.64 299.049 186.795 295.875 186.795 291.96C186.795 288.044 183.64 284.87 179.748 284.87C175.856 284.87 172.701 288.044 172.701 291.96C172.701 295.875 175.856 299.049 179.748 299.049Z" fill="url(#paint16_linear_3_1170)"/>
<path d="M183.856 275.513C183.856 275.513 191.429 248.939 193.664 233.338C196.717 212.029 201.664 181.436 194.771 160.925C192.359 153.747 185.596 152.331 185.596 152.331" stroke="black" stroke-width="5.46193" stroke-linecap="round" stroke-linejoin="round"/>
<path d="M113.753 175.373C113.753 175.373 109.505 178.056 107.713 181C102.705 189.225 98.5405 210.259 98.5405 210.259" stroke="black" stroke-width="5.46193" stroke-linecap="round" stroke-linejoin="round"/>
<path d="M103.91 245.37C103.91 245.37 110.172 231.892 109.279 224.888C108.679 220.19 106.643 216.067 102.818 213.305C99.2418 210.723 93.6826 209.153 89.3685 210.034C85.4161 210.841 81.8494 213.641 79.3015 216.786C75.286 221.743 72.1427 234.566 72.1427 234.566" stroke="black" stroke-width="5.46193" stroke-linecap="round" stroke-linejoin="round"/>
<path d="M60.5407 280.583C65.2292 281.11 69.2108 279.908 69.4338 277.899C69.6568 275.89 66.0367 273.834 61.3481 273.307C56.6596 272.781 52.678 273.982 52.455 275.992C52.232 278.001 55.8521 280.056 60.5407 280.583Z" fill="#090C0E"/>
<path d="M97.5361 289.405C102.108 290.577 106.216 289.939 106.712 287.981C107.209 286.022 103.905 283.483 99.3336 282.311C94.7621 281.138 90.6538 281.776 90.1574 283.735C89.6611 285.694 92.9646 288.232 97.5361 289.405Z" fill="#090C0E"/>
<path d="M96.437 287.488C99.3582 288.237 101.984 287.829 102.301 286.578C102.618 285.326 100.507 283.704 97.5856 282.954C94.6643 282.205 92.039 282.613 91.7218 283.864C91.4047 285.116 93.5157 286.738 96.437 287.488Z" fill="url(#paint17_linear_3_1170)"/>
<path d="M58.7818 278.987C61.7696 279.391 64.3305 278.682 64.5019 277.401C64.6733 276.121 62.3902 274.755 59.4025 274.35C56.4148 273.945 53.8539 274.655 53.6825 275.935C53.5111 277.216 55.7941 278.582 58.7818 278.987Z" fill="url(#paint18_linear_3_1170)"/>
<path fill-rule="evenodd" clip-rule="evenodd" d="M80.7179 212.331C85.4321 208.058 90.0389 207.497 96.6948 208.193C97.2092 205.354 98.92 196.74 101.309 189.581C103.945 181.681 109.809 174.153 106.819 179.705C104.694 183.65 103.822 185.099 102.33 189.474C100.395 195.147 99.4024 204.16 98.4349 208.829C100.768 209.764 105.996 214.452 107.321 218.126C109.587 224.413 108.345 235.134 104.82 239.452C101.483 243.539 114.56 226.189 101.803 213.876C95.7223 208.006 86.7762 209.106 80.6987 214.625C79.463 215.747 77.7657 217.798 76.238 220.76C72.8309 227.366 69.8221 235.817 71.5052 229.573C73.8487 220.879 76.6365 216.03 80.7179 212.331Z" fill="url(#paint19_linear_3_1170)"/>
<path d="M69.6819 276.542C87.632 275.807 96.0118 268.64 102.12 249.421" stroke="white" stroke-opacity="0.416667" stroke-width="0.682741" stroke-linecap="round" stroke-linejoin="round"/>
<path fill-rule="evenodd" clip-rule="evenodd" d="M91.3505 57.0087C83.2835 82.3869 82.4945 119.412 89.0935 136.326C96.5343 155.398 106.217 180.261 120.38 192.454C130.029 200.761 147.375 192.842 158.639 186.941C175.201 178.263 182.134 166.48 191.159 153.926C201.205 139.95 212.903 124.996 214.514 107.824C216.336 88.395 210.089 67.0716 198.254 51.6097C188.571 38.9603 173.305 27.7471 157.457 26.923C134.959 25.7533 97.7532 36.8666 91.3505 57.0087Z" fill="url(#paint20_radial_3_1170)" stroke="#CD7C4B" stroke-width="1.02411" stroke-linecap="round" stroke-linejoin="round"/>
<path fill-rule="evenodd" clip-rule="evenodd" d="M88.1007 108.804C85.9145 85.8019 88.2366 55.6129 103.069 41.5551C157.382 -9.53554 190.793 62.8667 150.679 89.3632C136.279 98.4882 89.2914 121.332 88.1007 108.804Z" fill="url(#paint21_linear_3_1170)"/>
<path fill-rule="evenodd" clip-rule="evenodd" d="M123.22 188.093C118.642 184.248 119.897 191.79 126.584 192.468C133.892 193.21 146.061 190.84 157.712 184.097C171.882 175.897 177.6 163.607 190.532 146.451C199.243 134.896 172.175 173.644 153.532 182.625C142.67 187.857 126.376 190.743 123.22 188.093Z" fill="url(#paint22_linear_3_1170)"/>
<path fill-rule="evenodd" clip-rule="evenodd" d="M188.999 110.166C192.618 106.891 196.546 106.483 197.919 107.36C211.716 116.18 188.982 147.991 194.819 141.543C204.525 130.821 214.031 101.281 195.512 103.806C191.512 104.351 187.819 111.234 188.999 110.166Z" fill="url(#paint23_linear_3_1170)"/>
<path fill-rule="evenodd" clip-rule="evenodd" d="M162.594 57.1913C188.465 71.7981 179.31 82.4091 181.117 113.42C181.187 114.622 182.113 116.117 183.007 114.903C206.313 83.2578 221.762 121.784 193.041 146.03C191.411 147.406 195.001 153.123 196.386 151.498C209.123 136.546 218.302 121.559 220.626 101.602C223.247 79.0899 219.528 46.1437 203.605 30.1094C187.933 14.3276 165.051 12.4144 143.079 15.4244C124.889 17.9163 108.929 24.4793 95.1478 33.4286C88.6765 37.6309 81.4126 46.7148 78.0209 49.3919C74.0383 52.5355 89.2634 59.7185 92.0401 59.9624C104.95 61.0965 120.294 60.6009 134.404 58.5858C145.227 57.0402 155.436 53.15 162.594 57.1913Z" fill="url(#paint24_linear_3_1170)" stroke="#451900" stroke-width="1.02411"/>
<path fill-rule="evenodd" clip-rule="evenodd" d="M171.731 59.9517C182.714 60.1426 197.367 39.6682 199.226 41.6746C215.451 59.1859 213.572 92.9324 213.219 117.994C213.204 119.092 216.25 118.339 216.411 117.253C220.719 88.074 222.158 57.2933 206.345 34.512C196.23 19.9379 175.719 13.9781 156.264 15.2469C129.372 17.0009 97.883 28.2212 81.6338 47.4788C76.9166 53.0694 100.197 53.5812 111.339 54.1475C126.061 54.8957 144.839 46.5755 158.965 50.8131C163.97 52.3145 166.509 59.8609 171.731 59.9517Z" fill="url(#paint25_linear_3_1170)"/>
<path fill-rule="evenodd" clip-rule="evenodd" d="M81.1429 49.7017C88.056 51.1257 102.092 53.542 113.548 53.4065C123.678 53.2867 134.976 50.0683 145.094 49.5782C150.053 49.338 160.869 50.7026 159.947 50.6896C155.118 50.6214 150.275 49.9076 145.463 50.3191C135.364 51.1828 124.169 54.557 114.039 54.8884C102.368 55.2703 88.2863 53.6857 80.8974 51.6776C80.2605 51.5045 80.4965 49.5685 81.1429 49.7017Z" fill="url(#paint26_linear_3_1170)"/>
<path fill-rule="evenodd" clip-rule="evenodd" d="M136.864 218.763L142.85 243.948L145.707 238.746L136.864 218.763Z" fill="url(#paint27_linear_3_1170)"/>
<path fill-rule="evenodd" clip-rule="evenodd" d="M128.797 219.415C123.221 224.12 118.865 229.307 114.839 234.064L115.312 237.669L128.797 219.415Z" fill="url(#paint28_linear_3_1170)"/>
<defs>
<filter id="filter0_f_3_1170" x="182.142" y="241.436" width="131.627" height="76.691" filterUnits="userSpaceOnUse" color-interpolation-filters="sRGB">
<feFlood flood-opacity="0" result="BackgroundImageFix"/>
<feBlend mode="normal" in="SourceGraphic" in2="BackgroundImageFix" result="shape"/>
<feGaussianBlur stdDeviation="1.52284" result="effect1_foregroundBlur_3_1170"/>
</filter>
<linearGradient id="paint0_linear_3_1170" x1="189.247" y1="208.368" x2="120.894" y2="182.765" gradientUnits="userSpaceOnUse">
<stop stop-color="#D3824D"/>
<stop offset="0.441252" stop-color="#EEB585"/>
<stop offset="0.75708" stop-color="#E29964"/>
<stop offset="1" stop-color="#AB7042"/>
</linearGradient>
<linearGradient id="paint1_linear_3_1170" x1="231.426" y1="308.028" x2="278.972" y2="240.156" gradientUnits="userSpaceOnUse">
<stop stop-opacity="0.675"/>
<stop offset="1" stop-opacity="0"/>
</linearGradient>
<linearGradient id="paint2_linear_3_1170" x1="143.202" y1="236.84" x2="107.093" y2="249.772" gradientUnits="userSpaceOnUse">
<stop stop-color="#B3D5F6"/>
<stop offset="1" stop-color="#EFF6FD"/>
</linearGradient>
<linearGradient id="paint3_linear_3_1170" x1="162.794" y1="211.482" x2="148.41" y2="191.244" gradientUnits="userSpaceOnUse">
<stop stop-color="#B3D5F6"/>
<stop offset="1" stop-color="#EFF6FD"/>
</linearGradient>
<linearGradient id="paint4_linear_3_1170" x1="122.638" y1="223.073" x2="120.876" y2="189.812" gradientUnits="userSpaceOnUse">
<stop stop-color="#B3D5F6"/>
<stop offset="1" stop-color="#EFF6FD"/>
</linearGradient>
<linearGradient id="paint5_linear_3_1170" x1="95.4088" y1="199.68" x2="125.353" y2="267.518" gradientUnits="userSpaceOnUse">
<stop stop-color="white" stop-opacity="0.8"/>
<stop offset="1" stop-color="white" stop-opacity="0"/>
</linearGradient>
<linearGradient id="paint6_linear_3_1170" x1="162.817" y1="298.033" x2="189.484" y2="281.309" gradientUnits="userSpaceOnUse">
<stop stop-color="white" stop-opacity="0.8"/>
<stop offset="1" stop-color="white" stop-opacity="0"/>
</linearGradient>
<linearGradient id="paint7_linear_3_1170" x1="142.836" y1="228.94" x2="172.78" y2="296.778" gradientUnits="userSpaceOnUse">
<stop stop-color="white" stop-opacity="0.8"/>
<stop offset="1" stop-color="white" stop-opacity="0"/>
</linearGradient>
<linearGradient id="paint8_linear_3_1170" x1="217.255" y1="204.265" x2="205.488" y2="187.064" gradientUnits="userSpaceOnUse">
<stop stop-color="white" stop-opacity="0.8"/>
<stop offset="1" stop-color="white" stop-opacity="0"/>
</linearGradient>
<linearGradient id="paint9_linear_3_1170" x1="183.944" y1="268.737" x2="169.948" y2="267.221" gradientUnits="userSpaceOnUse">
<stop stop-color="#EF1F00"/>
<stop offset="1" stop-color="#FF5339"/>
</linearGradient>
<linearGradient id="paint10_linear_3_1170" x1="81.1832" y1="202.333" x2="84.7739" y2="274.606" gradientUnits="userSpaceOnUse">
<stop stop-color="#CBC7C6"/>
<stop offset="1" stop-color="#CBC7C6" stop-opacity="0"/>
</linearGradient>
<linearGradient id="paint11_linear_3_1170" x1="204.167" y1="242.783" x2="199.08" y2="321.301" gradientUnits="userSpaceOnUse">
<stop stop-color="#CBC7C6"/>
<stop offset="1" stop-color="#CBC7C6" stop-opacity="0"/>
</linearGradient>
<radialGradient id="paint12_radial_3_1170" cx="0" cy="0" r="1" gradientUnits="userSpaceOnUse" gradientTransform="translate(223.607 237.317) scale(17.2219 35.362)">
<stop stop-color="white" stop-opacity="0.8"/>
<stop offset="1" stop-color="white" stop-opacity="0"/>
</radialGradient>
<linearGradient id="paint13_linear_3_1170" x1="205.463" y1="230.42" x2="284.556" y2="236.238" gradientUnits="userSpaceOnUse">
<stop stop-color="white"/>
<stop offset="1" stop-color="white" stop-opacity="0"/>
</linearGradient>
<radialGradient id="paint14_radial_3_1170" cx="0" cy="0" r="1" gradientUnits="userSpaceOnUse" gradientTransform="translate(170.864 283.304) rotate(-42.3227) scale(36.9079 22.2009)">
<stop stop-color="#BFBFBF"/>
<stop offset="1"/>
</radialGradient>
<linearGradient id="paint15_linear_3_1170" x1="185.438" y1="299.945" x2="171.772" y2="281.906" gradientUnits="userSpaceOnUse">
<stop stop-color="#010101"/>
<stop offset="1" stop-color="#434343"/>
</linearGradient>
<linearGradient id="paint16_linear_3_1170" x1="184.19" y1="296.737" x2="175.704" y2="286.616" gradientUnits="userSpaceOnUse">
<stop stop-color="#909090"/>
<stop offset="1" stop-color="#BABABA" stop-opacity="0"/>
</linearGradient>
<linearGradient id="paint17_linear_3_1170" x1="93.6234" y1="277.675" x2="97.419" y2="287.688" gradientUnits="userSpaceOnUse">
<stop stop-color="white" stop-opacity="0.8"/>
<stop offset="1" stop-color="white" stop-opacity="0"/>
</linearGradient>
<linearGradient id="paint18_linear_3_1170" x1="59.3352" y1="268.554" x2="59.7473" y2="279.091" gradientUnits="userSpaceOnUse">
<stop stop-color="white" stop-opacity="0.8"/>
<stop offset="1" stop-color="white" stop-opacity="0"/>
</linearGradient>
<linearGradient id="paint19_linear_3_1170" x1="83.3149" y1="178.773" x2="115.952" y2="239.244" gradientUnits="userSpaceOnUse">
<stop stop-color="white" stop-opacity="0.8"/>
<stop offset="1" stop-color="white" stop-opacity="0"/>
</linearGradient>
<radialGradient id="paint20_radial_3_1170" cx="0" cy="0" r="1" gradientUnits="userSpaceOnUse" gradientTransform="translate(136.513 110.342) rotate(6.33752) scale(92.3911 118.565)">
<stop stop-color="#F4C093"/>
<stop offset="1" stop-color="#C67B4C" stop-opacity="0.984314"/>
</radialGradient>
<linearGradient id="paint21_linear_3_1170" x1="109.285" y1="15.7709" x2="139.683" y2="111.569" gradientUnits="userSpaceOnUse">
<stop stop-color="white"/>
<stop offset="1" stop-color="white" stop-opacity="0"/>
</linearGradient>
<linearGradient id="paint22_linear_3_1170" x1="176.227" y1="233.939" x2="148.65" y2="161.069" gradientUnits="userSpaceOnUse">
<stop stop-color="white"/>
<stop offset="1" stop-color="white" stop-opacity="0"/>
</linearGradient>
<linearGradient id="paint23_linear_3_1170" x1="250.874" y1="117.048" x2="185.154" y2="120.761" gradientUnits="userSpaceOnUse">
<stop stop-color="white"/>
<stop offset="1" stop-color="white" stop-opacity="0"/>
</linearGradient>
<linearGradient id="paint24_linear_3_1170" x1="212.482" y1="102.252" x2="146.643" y2="11.019" gradientUnits="userSpaceOnUse">
<stop stop-color="#443024"/>
<stop offset="1" stop-color="#A27356"/>
</linearGradient>
<linearGradient id="paint25_linear_3_1170" x1="147.78" y1="-85.971" x2="174.523" y2="73.9672" gradientUnits="userSpaceOnUse">
<stop stop-color="white"/>
<stop offset="1" stop-color="white" stop-opacity="0"/>
</linearGradient>
<linearGradient id="paint26_linear_3_1170" x1="121.538" y1="5.63845" x2="145.317" y2="96.8606" gradientUnits="userSpaceOnUse">
<stop stop-color="white" stop-opacity="0.8"/>
<stop offset="1" stop-color="white" stop-opacity="0"/>
</linearGradient>
<linearGradient id="paint27_linear_3_1170" x1="140.362" y1="205.445" x2="143.706" y2="242.712" gradientUnits="userSpaceOnUse">
<stop stop-opacity="0.675"/>
<stop offset="1" stop-opacity="0"/>
</linearGradient>
<linearGradient id="paint28_linear_3_1170" x1="124.236" y1="205.821" x2="118.722" y2="237.564" gradientUnits="userSpaceOnUse">
<stop stop-opacity="0.675"/>
<stop offset="1" stop-opacity="0"/>
</linearGradient>
</defs>
</svg>
